<svg width="16" height="16" viewBox="0 0 16 16" fill="none" xmlns="http://www.w3.org/2000/svg">
<path fill-rule="evenodd" clip-rule="evenodd" d="M0.711775 10.5014C0.728154 10.3964 0.777541 10.2994 0.852775 10.2244L10.9308 0.146393C11.0245 0.0526576 11.1517 0 11.2843 0C11.4169 0 11.544 0.0526576 11.6378 0.146393L15.5278 4.03639C15.6212 4.13012 15.6737 4.25706 15.6737 4.38939C15.6737 4.52173 15.6212 4.64867 15.5278 4.74239L5.44778 14.8214C5.37263 14.8963 5.27562 14.9453 5.17078 14.9614L0.575775 15.6674C0.498194 15.6793 0.418903 15.6728 0.344317 15.6483C0.269731 15.6239 0.201946 15.5822 0.146447 15.5267C0.0909477 15.4712 0.0492936 15.4034 0.0248552 15.3289C0.000416802 15.2543 -0.00611955 15.175 0.00577528 15.0974L0.711775 10.5014ZM1.67578 10.8154L1.09878 14.5754L4.85778 13.9974L14.4668 4.38939L11.2838 1.20739L1.67578 10.8154Z" fill="black"/>
<path fill-rule="evenodd" clip-rule="evenodd" d="M12.2398 6.88439L8.70277 3.35439L9.40977 2.64639L12.9458 6.17639L12.2398 6.88439Z" fill="black"/>
</svg>
